<svg width="151" height="150" viewBox="0 0 151 150" fill="none" xmlns="http://www.w3.org/2000/svg">
<rect width="151" height="150" fill="#1E1E1E"/>
<rect width="151" height="150" fill="#FF5722"/>
<path d="M102.912 33.12C106.411 30.9867 109.099 29.92 110.976 29.92C112.939 29.92 114.731 30.304 116.352 31.072L106.368 72.672C105.941 76.5973 104.875 84.4053 103.168 96.096C101.547 107.701 100.352 117.003 99.584 124C94.2933 124.427 90.2827 123.403 87.552 120.928C77.056 100.704 67.0293 75.6587 57.472 45.792L51.712 72.672C51.2853 76.9387 50.2613 84.9173 48.64 96.608C47.0187 108.213 45.824 117.344 45.056 124C38.912 124.597 34.816 123.275 32.768 120.032C37.2053 102.795 40.192 90.5493 41.728 83.296C43.264 75.9573 44.7147 68.32 46.08 60.384L48.256 33.12C51.9253 30.9867 54.656 29.92 56.448 29.92C58.24 29.92 59.9893 30.304 61.696 31.072C67.7547 52.576 74.9653 73.5253 83.328 93.92L91.264 107.872C91.776 105.483 92.544 102.027 93.568 97.504C94.592 92.896 95.4027 89.184 96 86.368C97.792 77.7493 99.3707 69.088 100.736 60.384L102.912 33.12Z" fill="white"/>
</svg>
